<?xml version="1.0" encoding="UTF-8" standalone="no"?>
<svg
   xmlns:dc="http://purl.org/dc/elements/1.1/"
   xmlns:cc="http://creativecommons.org/ns#"
   xmlns:rdf="http://www.w3.org/1999/02/22-rdf-syntax-ns#"
   xmlns:svg="http://www.w3.org/2000/svg"
   xmlns="http://www.w3.org/2000/svg"
   xmlns:xlink="http://www.w3.org/1999/xlink"
   xmlns:sodipodi="http://sodipodi.sourceforge.net/DTD/sodipodi-0.dtd"
   xmlns:inkscape="http://www.inkscape.org/namespaces/inkscape"
   id="svg18"
   height="1024"
   width="1024"
   version="1.1"
   viewBox="0 0 270.87142 270.95055"
   sodipodi:docname="splash.svg"
   inkscape:version="0.92.5 (2060ec1f9f, 2020-04-08)">
  <metadata
     id="metadata894">
    <rdf:RDF>
      <cc:Work
         rdf:about="">
        <dc:format>image/svg+xml</dc:format>
        <dc:type
           rdf:resource="http://purl.org/dc/dcmitype/StillImage" />
        <dc:title />
      </cc:Work>
    </rdf:RDF>
  </metadata>
  <defs
     id="defs892">
    <clipPath
       clipPathUnits="userSpaceOnUse"
       id="clipPath1446">
      <use
         x="0"
         y="0"
         xlink:href="#g1442"
         id="use1448"
         width="100%"
         height="100%" />
    </clipPath>
  </defs>
  <sodipodi:namedview
     pagecolor="#ffffff"
     bordercolor="#666666"
     borderopacity="1"
     objecttolerance="10"
     gridtolerance="10"
     guidetolerance="10"
     inkscape:pageopacity="0"
     inkscape:pageshadow="2"
     inkscape:window-width="1866"
     inkscape:window-height="1016"
     id="namedview890"
     showgrid="false"
     units="in"
     inkscape:pagecheckerboard="true"
     inkscape:zoom="0.65186406"
     inkscape:cx="553.33743"
     inkscape:cy="492.11856"
     inkscape:window-x="54"
     inkscape:window-y="27"
     inkscape:window-maximized="1"
     inkscape:current-layer="svg18" />
  <g
     id="g1444"
     clip-path="url(#clipPath1446)"
     transform="matrix(1.3152902,0,0,1.3152902,-42.695556,-26.670912)">
    <g
       inkscape:label="Clip"
       id="g1442">
      <path
         inkscape:connector-curvature="0"
         style="fill:#006a97;stroke-width:2.43305683"
         d="m 100.41064,157.57328 v 14.36477 h 13.46697 v -27.71252 z m 3.76637,1.59803 5.81987,-5.70795 v 14.4329 h -5.81987 z m 28.07748,2.73963 -13.35505,-13.01199 v 23.05565 h 13.46697 z m -3.76638,6.02425 h -5.83933 v -10.04853 l 5.81987,5.70795 z m 22.37196,-20.17734 -13.46697,13.12634 v 11.05337 h 13.46697 z m -3.88072,20.17734 h -5.81988 v -5.34056 l 5.81988,-5.70796 z m 8.90255,-25.42545 v 29.46432 h 13.46697 v -42.84614 z m 3.88073,1.71214 5.81987,-5.81987 v 29.53731 h -5.81987 z m 9.81495,-21.22842 v -4.10943 l -35.27933,35.27932 -19.63233,-19.63234 -14.3818,14.38181 -2.739622,-2.73962 17.121422,-17.12143 19.63233,19.63234 32.40832,-32.40832 h -3.76637 v -3.76637 h 10.38672 v 10.38672 h -3.76637 z"
         id="path2" />
      <path
         inkscape:connector-curvature="0"
         style="fill:#006a97;stroke-width:0.22878034"
         d="m 135.43571,104.77594 c -5.69579,0 -10.29427,4.59848 -10.29427,10.29427 0,5.69578 4.59848,10.2967 10.29427,10.2967 5.69578,0 10.29426,-4.59848 10.29426,-10.2967 0,-5.69579 -4.59848,-10.29427 -10.29426,-10.29427 z m -1.60169,5.42329 h 2.2192 c 0.22878,0 0.43478,2.7e-4 0.64062,0.0243 0.20591,0.0219 0.45767,0.0681 0.73235,0.11387 0.27445,0.0686 0.57202,0.18345 0.86933,0.34354 0.29732,0.1601 0.54866,0.36593 0.75449,0.61751 0.16015,0.20584 0.29829,0.41216 0.38978,0.66374 h 1.67005 l -0.52676,0.84622 h -0.9377 c -0.0229,0.16009 -0.0231,0.2978 -0.0231,0.43503 0,0.20583 -0.0224,0.3888 -0.0453,0.5489 h 1.48684 l -0.52578,0.84621 h -1.16738 c -0.16014,0.41192 -0.41119,0.77736 -0.73138,1.07493 -0.32019,0.29732 -0.70997,0.52675 -1.16738,0.68685 -0.45766,0.16009 -1.00656,0.25182 -1.67005,0.25182 h -1.14354 v 3.74691 c 0,0.0457 -0.0224,0.092 -0.0454,0.11484 -0.0229,0.0219 -0.0459,0.0457 -0.0916,0.0686 -0.0458,0.0219 -0.11401,0.0462 -0.20552,0.0462 -0.0915,0 -0.2062,0.0219 -0.34354,0.0219 -0.13728,0 -0.25207,7.8e-4 -0.34355,-0.0219 -0.0915,-0.0219 -0.15978,-0.0243 -0.20552,-0.0462 -0.0458,-0.0219 -0.0919,-0.0457 -0.11479,-0.0686 -0.0229,-0.0219 -0.0221,-0.0691 -0.0221,-0.11484 v -5.74201 h -2.28854 l 0.52676,-0.8472 h 1.78392 v -0.97322 h -2.28755 l 0.52673,-0.84719 h 1.78392 v -1.18952 c 0,-0.20584 0.0458,-0.36593 0.16017,-0.45741 0.1144,-0.0915 0.22868,-0.13699 0.3888,-0.13699 z m 0.77761,1.14329 v 0.64063 h 3.08755 c -0.0915,-0.13723 -0.22815,-0.25158 -0.34258,-0.32044 -0.22878,-0.13722 -0.48052,-0.22822 -0.73235,-0.27396 -0.25156,-0.0457 -0.5034,-0.0462 -0.73235,-0.0462 z m 0,1.48782 v 0.98319 h 3.52307 c 0.0229,-0.13722 0.0454,-0.29707 0.0454,-0.45741 0,-0.18297 -0.0224,-0.36569 -0.0454,-0.52578 z m 0,1.80703 v 0.86933 h 1.23599 c 0.41192,0 0.75522,-0.0457 1.05254,-0.1601 0.27445,-0.11435 0.50292,-0.25133 0.68612,-0.45741 0.0686,-0.0686 0.13689,-0.16034 0.20553,-0.25182 z"
         id="path4870" />
      <path
         inkscape:connector-curvature="0"
         d="M 195.29651,117.52516 135.46765,74.581699 75.565792,117.08721"
         style="fill:none;stroke:#006a97;stroke-width:4.12889767"
         id="path4863" />
    </g>
  </g>
</svg>
